{
  "accessors": [
    {
      "bufferView": 2,
      "componentType": 5126,
      "count": 14015,
      "max": [
        2.2824802398681641,
        0.80267804861068726,
        1.077832818031311
      ],
      "min": [
        -2.2975056171417236,
        -0.80253583192825317,
        -1.1030998229980469
      ],
      "type": "VEC3"
    },
    {
      "bufferView": 2,
      "byteOffset": 168180,
      "componentType": 5126,
      "count": 14015,
      "max": [
        0.99987798929214478,
        1,
        0.99993366003036499
      ],
      "min": [
        -0.99987798929214478,
        -1,
        -1
      ],
      "type": "VEC3"
    },
    {
      "bufferView": 3,
      "componentType": 5126,
      "count": 14015,
      "max": [
        0.99979221820831299,
        1,
        0.99916714429855347,
        1
      ],
      "min": [
        -0.99988037347793579,
        -1,
        -0.99995410442352295,
        -1
      ],
      "type": "VEC4"
    },
    {
      "bufferView": 1,
      "componentType": 5126,
      "count": 14015,
      "max": [
        0.99704515933990479,
        0.99747753143310547
      ],
      "min": [
        0,
        0
      ],
      "type": "VEC2"
    },
    {
      "bufferView": 1,
      "byteOffset": 112120,
      "componentType": 5126,
      "count": 14015,
      "max": [
        0.99704515933990479,
        0.99747753143310547
      ],
      "min": [
        0,
        0
      ],
      "type": "VEC2"
    },
    {
      "bufferView": 0,
      "componentType": 5125,
      "count": 49566,
      "max": [
        14014
      ],
      "min": [
        0
      ],
      "type": "SCALAR"
    },
    {
      "bufferView": 2,
      "byteOffset": 336360,
      "componentType": 5126,
      "count": 1567,
      "max": [
        1.2078825235366821,
        0.64915359020233154,
        1.1729578971862793
      ],
      "min": [
        -1.2078827619552612,
        -0.64915364980697632,
        -1.1729578971862793
      ],
      "type": "VEC3"
    },
    {
      "bufferView": 2,
      "byteOffset": 355164,
      "componentType": 5126,
      "count": 1567,
      "max": [
        0.9998706579208374,
        0.9985584020614624,
        0.99988490343093872
      ],
      "min": [
        -0.9998706579208374,
        -0.99855852127075195,
        -0.99988490343093872
      ],
      "type": "VEC3"
    },
    {
      "bufferView": 3,
      "byteOffset": 224240,
      "componentType": 5126,
      "count": 1567,
      "max": [
        0.99997437000274658,
        0.02471795491874218,
        0.99995207786560059,
        1
      ],
      "min": [
        -0.9998849630355835,
        -0.024717912077903748,
        -0.99987071752548218,
        1
      ],
      "type": "VEC4"
    },
    {
      "bufferView": 1,
      "byteOffset": 224240,
      "componentType": 5126,
      "count": 1567,
      "max": [
        0.99996769428253174,
        1.0005028247833252
      ],
      "min": [
        -3.2305717468261719e-05,
        0.0010876751039177179
      ],
      "type": "VEC2"
    },
    {
      "bufferView": 1,
      "byteOffset": 236776,
      "componentType": 5126,
      "count": 1567,
      "max": [
        0.99996769428253174,
        1.0005028247833252
      ],
      "min": [
        -3.2305717468261719e-05,
        0.0010876751039177179
      ],
      "type": "VEC2"
    },
    {
      "bufferView": 0,
      "byteOffset": 198264,
      "componentType": 5125,
      "count": 8448,
      "max": [
        1566
      ],
      "min": [
        0
      ],
      "type": "SCALAR"
    },
    {
      "bufferView": 2,
      "byteOffset": 373968,
      "componentType": 5126,
      "count": 5620,
      "max": [
        0.68134558200836182,
        0.61551696062088013,
        0.68134576082229614
      ],
      "min": [
        -0.68134546279907227,
        -0.61551696062088013,
        -0.68134546279907227
      ],
      "type": "VEC3"
    },
    {
      "bufferView": 2,
      "byteOffset": 441408,
      "componentType": 5126,
      "count": 5620,
      "max": [
        0.99987798929214478,
        1,
        0.99987798929214478
      ],
      "min": [
        -0.99987798929214478,
        -1,
        -0.99987798929214478
      ],
      "type": "VEC3"
    },
    {
      "bufferView": 3,
      "byteOffset": 249312,
      "componentType": 5126,
      "count": 5620,
      "max": [
        0.99994730949401855,
        1,
        0.99992948770523071,
        1
      ],
      "min": [
        -0.99803411960601807,
        -1,
        -0.9985504150390625,
        -1
      ],
      "type": "VEC4"
    },
    {
      "bufferView": 1,
      "byteOffset": 249312,
      "componentType": 5126,
      "count": 5620,
      "max": [
        0.97260570526123047,
        0.99690920114517212
      ],
      "min": [
        -0.0033704042434692383,
        -0.0032549500465393066
      ],
      "type": "VEC2"
    },
    {
      "bufferView": 1,
      "byteOffset": 294272,
      "componentType": 5126,
      "count": 5620,
      "max": [
        0.97260570526123047,
        0.99690920114517212
      ],
      "min": [
        -0.0033704042434692383,
        -0.0032549500465393066
      ],
      "type": "VEC2"
    },
    {
      "bufferView": 0,
      "byteOffset": 232056,
      "componentType": 5125,
      "count": 26736,
      "max": [
        5619
      ],
      "min": [
        0
      ],
      "type": "SCALAR"
    },
    {
      "bufferView": 2,
      "byteOffset": 508848,
      "componentType": 5126,
      "count": 16,
      "max": [
        1,
        1,
        0
      ],
      "min": [
        -1,
        -1,
        0
      ],
      "type": "VEC3"
    },
    {
      "bufferView": 2,
      "byteOffset": 509040,
      "componentType": 5126,
      "count": 16,
      "max": [
        0,
        0,
        1
      ],
      "min": [
        0,
        0,
        1
      ],
      "type": "VEC3"
    },
    {
      "bufferView": 3,
      "byteOffset": 339232,
      "componentType": 5126,
      "count": 16,
      "max": [
        1,
        0,
        0,
        1
      ],
      "min": [
        1,
        -5.3644416766474023e-06,
        0,
        1
      ],
      "type": "VEC4"
    },
    {
      "bufferView": 1,
      "byteOffset": 339232,
      "componentType": 5126,
      "count": 16,
      "max": [
        1,
        1
      ],
      "min": [
        0,
        0
      ],
      "type": "VEC2"
    },
    {
      "bufferView": 0,
      "byteOffset": 339000,
      "componentType": 5125,
      "count": 54,
      "max": [
        15
      ],
      "min": [
        0
      ],
      "type": "SCALAR"
    }
  ],
  "asset": {
    "extras": {
      "author": "maxime.montegnies (https://sketchfab.com/aimix)",
      "license": "CC-BY-4.0 (http://creativecommons.org/licenses/by/4.0/)",
      "source": "https://sketchfab.com/3d-models/onewheel-pint-cb822b5e535641f7ba23893a8f61b16e",
      "title": "OneWheel Pint"
    },
    "generator": "Sketchfab-7.7.0",
    "version": "2.0"
  },
  "bufferViews": [
    {
      "buffer": 0,
      "byteLength": 339216,
      "byteOffset": 0,
      "name": "floatBufferViews",
      "target": 34963
    },
    {
      "buffer": 0,
      "byteLength": 339360,
      "byteOffset": 339216,
      "byteStride": 8,
      "name": "floatBufferViews",
      "target": 34962
    },
    {
      "buffer": 0,
      "byteLength": 509232,
      "byteOffset": 678576,
      "byteStride": 12,
      "name": "floatBufferViews",
      "target": 34962
    },
    {
      "buffer": 0,
      "byteLength": 339488,
      "byteOffset": 1187808,
      "byteStride": 16,
      "name": "floatBufferViews",
      "target": 34962
    }
  ],
  "buffers": [
    {
      "byteLength": 1527296,
      "uri": "scene.bin"
    }
  ],
  "images": [
    {
      "uri": "textures/Low_PlastickBlack_baseColor.png"
    },
    {
      "uri": "textures/Low_PlastickBlack_metallicRoughness.png"
    },
    {
      "uri": "textures/Low_PlastickBlack_emissive.png"
    },
    {
      "uri": "textures/Low_PlastickBlack_normal.png"
    },
    {
      "uri": "textures/Material.001_baseColor.png"
    },
    {
      "uri": "textures/Material.001_metallicRoughness.png"
    },
    {
      "uri": "textures/Material.001_normal.png"
    },
    {
      "uri": "textures/Material.002_baseColor.png"
    },
    {
      "uri": "textures/Material.002_metallicRoughness.png"
    },
    {
      "uri": "textures/Material.002_normal.png"
    },
    {
      "uri": "textures/Floor_baseColor.png"
    },
    {
      "uri": "textures/Floor_metallicRoughness.png"
    }
  ],
  "materials": [
    {
      "doubleSided": true,
      "emissiveFactor": [
        1,
        1,
        1
      ],
      "emissiveTexture": {
        "index": 2,
        "texCoord": 0
      },
      "name": "Low_PlastickBlack",
      "normalTexture": {
        "index": 3,
        "scale": 1,
        "texCoord": 0
      },
      "occlusionTexture": {
        "index": 1,
        "strength": 1,
        "texCoord": 0
      },
      "pbrMetallicRoughness": {
        "baseColorFactor": [
          1,
          1,
          1,
          1
        ],
        "baseColorTexture": {
          "index": 0,
          "texCoord": 0
        },
        "metallicFactor": 1,
        "metallicRoughnessTexture": {
          "index": 1,
          "texCoord": 0
        },
        "roughnessFactor": 1
      }
    },
    {
      "doubleSided": true,
      "emissiveFactor": [
        0,
        0,
        0
      ],
      "name": "Material.001",
      "normalTexture": {
        "index": 6,
        "scale": 1,
        "texCoord": 0
      },
      "occlusionTexture": {
        "index": 5,
        "strength": 1,
        "texCoord": 0
      },
      "pbrMetallicRoughness": {
        "baseColorFactor": [
          1,
          1,
          1,
          1
        ],
        "baseColorTexture": {
          "index": 4,
          "texCoord": 0
        },
        "metallicFactor": 0,
        "metallicRoughnessTexture": {
          "index": 5,
          "texCoord": 0
        },
        "roughnessFactor": 1
      }
    },
    {
      "doubleSided": true,
      "emissiveFactor": [
        0,
        0,
        0
      ],
      "name": "Material.002",
      "normalTexture": {
        "index": 9,
        "scale": 1,
        "texCoord": 0
      },
      "occlusionTexture": {
        "index": 8,
        "strength": 1,
        "texCoord": 0
      },
      "pbrMetallicRoughness": {
        "baseColorFactor": [
          1,
          1,
          1,
          1
        ],
        "baseColorTexture": {
          "index": 7,
          "texCoord": 0
        },
        "metallicFactor": 1,
        "metallicRoughnessTexture": {
          "index": 8,
          "texCoord": 0
        },
        "roughnessFactor": 1
      }
    },
    {
      "alphaMode": "BLEND",
      "doubleSided": false,
      "name": "Floor",
      "occlusionTexture": {
        "index": 11,
        "strength": 1,
        "texCoord": 0
      },
      "pbrMetallicRoughness": {
        "baseColorFactor": [
          0.043735029256973444,
          0.038204371595346481,
          0.038204371595346481,
          1
        ],
        "baseColorTexture": {
          "index": 10,
          "texCoord": 0
        },
        "metallicFactor": 1,
        "metallicRoughnessTexture": {
          "index": 11,
          "texCoord": 0
        },
        "roughnessFactor": 0.33708079268292684
      }
    }
  ],
  "meshes": [
    {
      "name": "Plateau.Central.001_Low_PlastickBlack_0",
      "primitives": [
        {
          "attributes": {
            "NORMAL": 1,
            "POSITION": 0,
            "TANGENT": 2,
            "TEXCOORD_0": 3,
            "TEXCOORD_1": 4
          },
          "indices": 5,
          "material": 0,
          "mode": 4
        }
      ]
    },
    {
      "name": "Cylinder.010_Material.001_0",
      "primitives": [
        {
          "attributes": {
            "NORMAL": 7,
            "POSITION": 6,
            "TANGENT": 8,
            "TEXCOORD_0": 9,
            "TEXCOORD_1": 10
          },
          "indices": 11,
          "material": 1,
          "mode": 4
        }
      ]
    },
    {
      "name": "Cylinder.011_Material.002_0",
      "primitives": [
        {
          "attributes": {
            "NORMAL": 13,
            "POSITION": 12,
            "TANGENT": 14,
            "TEXCOORD_0": 15,
            "TEXCOORD_1": 16
          },
          "indices": 17,
          "material": 2,
          "mode": 4
        }
      ]
    },
    {
      "name": "Plane_Floor_0",
      "primitives": [
        {
          "attributes": {
            "NORMAL": 19,
            "POSITION": 18,
            "TANGENT": 20,
            "TEXCOORD_0": 21
          },
          "indices": 22,
          "material": 3,
          "mode": 4
        }
      ]
    }
  ],
  "nodes": [
    {
      "children": [
        1
      ],
      "name": "RootNode (gltf orientation matrix)",
      "rotation": [
        -0.70710678118654746,
        -0,
        -0,
        0.70710678118654757
      ]
    },
    {
      "children": [
        2
      ],
      "matrix": [
        1,
        0,
        0,
        0,
        0,
        1,
        0,
        0,
        0,
        0,
        1,
        0,
        0,
        1.0636000524755218e-06,
        -2.9999999706653568e-10,
        1
      ],
      "name": "RootNode (model correction matrix)"
    },
    {
      "children": [
        3
      ],
      "matrix": [
        1,
        0,
        0,
        0,
        0,
        0,
        1,
        0,
        0,
        -1,
        0,
        0,
        0,
        0,
        0,
        1
      ],
      "name": "b24e91b51f5a4948b5e47ffe52b7abdd.fbx"
    },
    {
      "children": [
        4,
        6,
        8,
        10
      ],
      "name": "RootNode"
    },
    {
      "children": [
        5
      ],
      "matrix": [
        99.999984741210938,
        0,
        0,
        0,
        -0,
        -1.6292067939183141e-05,
        -99.999999999998678,
        0,
        0,
        99.999984741209616,
        -1.6292065453210861e-05,
        0,
        -3.7852644920349121,
        -0.78372901678085327,
        0,
        1
      ],
      "name": "Plateau.Central.001"
    },
    {
      "mesh": 0,
      "name": "Plateau.Central.001_Low_PlastickBlack_0"
    },
    {
      "children": [
        7
      ],
      "matrix": [
        85.385917663574219,
        0,
        0,
        0,
        -0,
        -1.391113171624449e-05,
        -85.385917663573096,
        0,
        0,
        87.928283691405085,
        -1.4325335716761596e-05,
        0,
        -3.7252902984619141e-07,
        -9.5329265594482422,
        0,
        1
      ],
      "name": "Cylinder.010"
    },
    {
      "mesh": 1,
      "name": "Cylinder.010_Material.001_0"
    },
    {
      "children": [
        9
      ],
      "matrix": [
        87.928291320800781,
        0,
        0,
        0,
        -0,
        -1.4325336959747737e-05,
        -87.928291320799616,
        0,
        0,
        87.928291320799616,
        -1.4325336959747737e-05,
        0,
        -3.7252902984619141e-07,
        -9.5329265594482422,
        0,
        1
      ],
      "name": "Cylinder.011"
    },
    {
      "mesh": 2,
      "name": "Cylinder.011_Material.002_0"
    },
    {
      "children": [
        11
      ],
      "matrix": [
        1053.6251220703125,
        0,
        0,
        0,
        0,
        -0.00017165732071199662,
        -1053.6251220702986,
        0,
        0,
        1053.6251220702986,
        -0.00017165732071199662,
        0,
        0,
        -112.66909790039062,
        0,
        1
      ],
      "name": "Plane"
    },
    {
      "mesh": 3,
      "name": "Plane_Floor_0"
    }
  ],
  "samplers": [
    {
      "magFilter": 9729,
      "minFilter": 9987,
      "wrapS": 10497,
      "wrapT": 10497
    }
  ],
  "scene": 0,
  "scenes": [
    {
      "name": "OSG_Scene",
      "nodes": [
        0
      ]
    }
  ],
  "textures": [
    {
      "sampler": 0,
      "source": 0
    },
    {
      "sampler": 0,
      "source": 1
    },
    {
      "sampler": 0,
      "source": 2
    },
    {
      "sampler": 0,
      "source": 3
    },
    {
      "sampler": 0,
      "source": 4
    },
    {
      "sampler": 0,
      "source": 5
    },
    {
      "sampler": 0,
      "source": 6
    },
    {
      "sampler": 0,
      "source": 7
    },
    {
      "sampler": 0,
      "source": 8
    },
    {
      "sampler": 0,
      "source": 9
    },
    {
      "sampler": 0,
      "source": 10
    },
    {
      "sampler": 0,
      "source": 11
    }
  ]
}

